<?xml version="1.0" standalone="no"?>
<!DOCTYPE svg PUBLIC "-//W3C//DTD SVG 20010904//EN"
 "http://www.w3.org/TR/2001/REC-SVG-20010904/DTD/svg10.dtd">
<svg version="1.0" xmlns="http://www.w3.org/2000/svg"
 width="260.000000pt" height="260.000000pt" viewBox="0 0 260.000000 260.000000"
 preserveAspectRatio="xMidYMid meet">
<metadata>
Created by potrace 1.11, written by Peter Selinger 2001-2013
</metadata>
<g transform="translate(0.000000,260.000000) scale(0.100000,-0.100000)"
fill="#000000" stroke="none">
<path d="M0 1706 l0 -894 325 0 325 0 0 324 0 324 -22 1 c-13 1 -85 1 -160 2
-76 0 -139 3 -139 6 -4 16 -5 298 -1 308 2 8 72 11 243 12 l239 2 1 -73 c0
-40 1 -113 2 -163 l2 -90 158 0 c86 0 158 -2 159 -5 0 -3 2 -142 4 -310 1
-168 3 -312 3 -321 1 -15 27 -16 243 -15 l243 1 0 323 c0 316 0 322 -20 323
-11 1 -84 1 -162 1 l-143 0 0 164 0 163 228 0 c125 0 234 -3 243 -5 14 -4 16
-24 17 -137 0 -72 0 -144 1 -158 l1 -26 138 -1 c75 0 147 -1 160 -1 l22 -1 0
-324 0 -324 245 0 245 0 -2 326 -3 327 -77 -2 c-73 -1 -78 0 -79 21 0 26 0
264 0 289 1 15 8 18 39 17 20 -1 56 -2 80 -1 l42 1 0 405 0 405 -407 0 -408 0
0 -162 0 -163 -77 0 c-45 0 -79 4 -81 10 -2 5 -3 79 -2 163 l0 152 -407 0
-407 0 0 -155 c0 -85 -2 -158 -4 -162 -6 -10 -303 -10 -313 -1 -3 4 -6 77 -6
163 l0 155 -244 0 -244 0 0 -894z"/>
<path d="M0 325 l0 -325 245 0 245 0 0 163 0 163 -82 0 -83 -1 1 163 1 162
-164 0 -163 0 0 -325z"/>
<path d="M813 488 l2 -163 80 0 80 0 0 -160 0 -160 325 0 325 0 0 160 0 160
-160 0 -160 0 -3 163 -2 162 -245 0 -244 0 2 -162z"/>
<path d="M1789 633 c-1 -21 -1 -235 0 -278 l1 -30 158 0 157 0 3 -163 2 -162
245 0 245 0 0 163 0 162 -162 0 -163 0 0 163 0 162 -242 0 c-224 0 -243 -1
-244 -17z"/>
</g>
</svg>
