<!DOCTYPE svg PUBLIC "-//W3C//DTD SVG 20010904//EN" "http://www.w3.org/TR/2001/REC-SVG-20010904/DTD/svg10.dtd">
<svg version="1.0" xmlns="http://www.w3.org/2000/svg" width="222px" height="227px" viewBox="0 0 2220 2270" preserveAspectRatio="xMidYMid meet">
<g id="layer101" fill="#10a8e2" stroke="none">
 <path d="M1050 2243 c-409 -26 -761 -260 -940 -627 -28 -56 -62 -146 -77 -201 -24 -91 -27 -116 -27 -280 0 -163 3 -189 26 -277 113 -419 453 -734 877 -814 108 -20 294 -20 402 0 424 80 764 395 877 814 23 88 26 114 26 277 0 163 -3 189 -26 277 -138 511 -620 863 -1138 831z m-519 -738 l42 -30 171 -3 c178 -4 197 -8 208 -50 4 -16 -12 -17 -207 -14 l-212 3 -22 -27 c-14 -18 -19 -34 -15 -48 4 -12 55 -87 115 -167 60 -80 109 -149 109 -153 0 -3 -40 -6 -89 -6 -85 0 -91 -1 -110 -26 -26 -34 -27 -68 -1 -94 19 -19 33 -20 225 -20 214 0 224 -2 188 -42 -15 -17 -38 -18 -319 -18 -302 0 -303 0 -318 22 -14 19 -16 66 -16 310 0 341 -4 328 105 328 l65 0 0 46 c0 52 -9 53 81 -11z m686 -109 c24 -8 58 -12 86 -9 75 9 77 4 77 -168 0 -184 -6 -200 -69 -198 -25 1 -66 -4 -91 -11 -85 -24 -159 10 -200 91 -24 46 -27 144 -6 192 25 58 96 112 152 116 6 1 29 -5 51 -13z m660 -22 c154 -122 78 -373 -113 -374 -190 -1 -256 298 -86 390 57 31 149 24 199 -16z m-353 4 c24 -34 24 -493 -1 -520 -20 -22 -56 -23 -77 -2 -14 13 -16 51 -16 261 0 215 2 249 17 265 22 25 59 23 77 -4z m-574 -260 c0 -78 -4 -138 -8 -133 -13 15 -187 248 -196 263 -5 9 17 12 98 12 l106 0 0 -142z"/>
 <path d="M1135 1275 c-47 -46 -28 -143 32 -166 79 -30 137 107 73 171 -28 28 -75 26 -105 -5z"/>
 <path d="M1728 1289 c-22 -12 -39 -72 -31 -109 19 -95 134 -92 157 4 9 36 -10 93 -34 106 -24 13 -70 12 -92 -1z"/>
 </g>
<g id="layer102" fill="#a0d6f1" stroke="none">
 <path d="M718 1473 c17 -2 47 -2 65 0 17 2 3 4 -33 4 -36 0 -50 -2 -32 -4z"/>
 <path d="M1753 1413 c9 -2 25 -2 35 0 9 3 1 5 -18 5 -19 0 -27 -2 -17 -5z"/>
 <path d="M1173 1293 c9 -2 25 -2 35 0 9 3 1 5 -18 5 -19 0 -27 -2 -17 -5z"/>
 <path d="M843 1263 l108 -4 -3 -144 c-2 -80 0 -145 5 -145 4 0 6 66 5 148 l-3 147 -110 0 -110 1 108 -3z"/>
 <path d="M993 1205 c0 -27 2 -38 4 -22 2 15 2 37 0 50 -2 12 -4 0 -4 -28z"/>
 <path d="M1262 1210 c0 -19 2 -27 5 -17 2 9 2 25 0 35 -3 9 -5 1 -5 -18z"/>
 <path d="M472 803 c82 -2 214 -2 295 0 82 1 15 3 -147 3 -162 0 -229 -2 -148 -3z"/>
 </g>

</svg>